<svg width="570" height="511.67482" xmlns="http://www.w3.org/2000/svg" data-name="Layer 1">

 <g>
  <title>Layer 1</title>
  <path id="svg_1" fill="#3f3d56" d="m564.99927,195.67483a0.99678,0.99678 0 0 1 -0.5708,-0.1792l-276.55884,-192.60352a5.01548,5.01548 0 0 0 -5.72852,0.00977l-274.56677,192.5918a1.00019,1.00019 0 0 1 -1.14868,-1.6377l274.567,-192.5918a7.02216,7.02216 0 0 1 8.02,-0.01318l276.55883,192.603a1.00019,1.00019 0 0 1 -0.57226,1.8208l0.00004,0.00003z"/>
  <polygon id="svg_2" fill="#e6e6e6" points="23.264 202.502 285.276 8.319 549.276 216.319 298.776 364.819 162.776 333.819 23.264 202.502"/>
  <path id="svg_3" fill="#00ff7f" d="m174.25553,456.54109l-129.44031,0a6.04737,6.04737 0 1 1 0,-12.09473l129.44031,0a6.04737,6.04737 0 1 1 0,12.09473z"/>
  <path id="svg_4" fill="#00ff7f" d="m91.25553,430.54109l-46.44031,0a6.04737,6.04737 0 1 1 0,-12.09473l46.44031,0a6.04737,6.04737 0 1 1 0,12.09473z"/>
  <path id="svg_5" fill="#fff" d="m288.96016,310.65949a7.56366,7.56366 0 0 1 -2.86914,-0.562l-161.59082,-67.04884l0,-209.874a7.00817,7.00817 0 0 1 7,-7l310,0a7.00818,7.00818 0 0 1 7,7l0,210.0205l-0.30371,0.12989l-156.28027,66.73972a7.61624,7.61624 0 0 1 -2.95606,0.59473z"/>
  <path id="svg_6" fill="#3f3d56" d="m288.96016,311.159a8.07177,8.07177 0 0 1 -3.05957,-0.59863l-161.90039,-67.17774l0,-210.208a7.50851,7.50851 0 0 1 7.5,-7.5l310,0a7.50851,7.50851 0 0 1 7.5,7.5l0,210.35058l-156.8877,66.999a8.10957,8.10957 0 0 1 -3.15234,0.63479zm-162.96,-69.1123l160.66309,66.66455a6.1182,6.1182 0 0 0 4.668,-0.02784l155.669,-66.47851l0,-209.03027a5.50653,5.50653 0 0 0 -5.5,-5.5l-310,0a5.50653,5.50653 0 0 0 -5.5,5.5l-0.00009,208.87207z"/>
  <path id="svg_7" fill="#3d3d3d" d="m563,193.67483l-0.2002,0l-114.7998,49.02002l-157.06982,67.07a5.06614,5.06614 0 0 1 -3.88038,0.02l-162.0498,-67.23002l-117.62012,-48.8l-0.17968,-0.08l-0.2002,0a7.00778,7.00778 0 0 0 -7,7l0,304a7.00779,7.00779 0 0 0 7,7l556,0a7.00779,7.00779 0 0 0 7,-7l0,-304a7.00778,7.00778 0 0 0 -7,-7zm5,311a5.002,5.002 0 0 1 -5,5l-556,0a5.002,5.002 0 0 1 -5,-5l0,-304a5.01106,5.01106 0 0 1 4.81006,-5l118.18994,49.03998l161.28027,66.92a7.12081,7.12081 0 0 0 5.43994,-0.03l156.27979,-66.73998l115.2002,-49.19a5.01621,5.01621 0 0 1 4.7998,5l0,304z"/>
  <path id="svg_8" fill="#00ff7f" d="m266.345,262.147a27.49862,27.49862 0 0 1 -16.5459,-5.4961l-0.2959,-0.22217l-62.311,-47.70752a27.68337,27.68337 0 1 1 33.67407,-43.94921l40.36035,30.94775l95.37793,-124.38672a27.68235,27.68235 0 0 1 38.81323,-5.12353l-0.593,0.80517l0.6084,-0.79346a27.71447,27.71447 0 0 1 5.12353,38.81348l-112.18733,146.30859a27.69447,27.69447 0 0 1 -22.02438,10.80372z"/>
 </g>
</svg>